# 3ds Max Wavefront OBJ Exporter v0.97b - (c)2007 guruware
# File Created: 24.11.2017 12:16:32

mtllib lowpolytree.mtl

#
# object Cylinder
#

v  -30.5056 246.6367 -12.2231
v  -30.1563 322.7034 15.4439
v  -29.1985 322.7034 15.7925
v  -12.0883 246.6368 -5.5197
v  -28.6888 322.7034 16.6752
v  -2.8496 240.3041 10.8342
v  -28.8658 322.7034 17.6790
v  -5.6921 246.6367 30.7553
v  -29.6467 322.7034 18.3342
v  -20.7060 246.6367 43.3535
v  -30.6660 322.7034 18.3342
v  -40.8662 240.3041 42.7339
v  -31.4468 322.7034 17.6790
v  -55.3192 246.6367 30.7553
v  -31.6238 322.7034 16.6752
v  -58.7226 246.6367 11.4538
v  -31.1141 322.7034 15.7925
v  -49.4839 240.3041 -6.1393
v  -32.6171 -80.9443 -80.7672
v  31.6617 -80.9443 -57.3717
v  65.8637 -100.3520 1.8679
v  53.9855 -100.3520 69.2327
v  1.5849 -80.9443 113.2021
v  -67.3800 -87.2769 112.5824
v  -119.2196 -100.3520 69.2328
v  -131.0978 -100.3520 1.8680
v  -97.4568 -106.6847 -57.9912
v  -148.3192 -105.4853 -1.8426
v  -118.3663 -45.3387 3.7632
v  -89.0374 -51.6713 -48.6270
v  -108.7463 -111.8179 -71.9760
v  -32.3021 -45.3387 -68.4532
v  -32.7586 -105.4853 -98.8095
v  -134.3809 -105.4853 77.2055
v  -107.9857 -45.3387 62.6345
v  -73.4533 -111.8179 128.1809
v  -62.7528 -51.6713 100.4404
v  7.3752 -105.4853 128.8005
v  -2.4124 -45.3387 101.0601
v  68.8637 -105.4853 77.2056
v  43.3814 -45.3387 62.6344
v  82.2412 -111.8179 -2.4623
v  53.7620 -45.3387 3.7631
v  42.6683 -105.4853 -71.3564
v  23.8723 -45.3387 -48.0075
v  -79.1376 169.2862 8.4037
v  -48.3711 251.6458 14.1823
v  -42.7499 245.3131 2.8551
v  -62.9807 162.9535 -21.1720
v  -30.5706 251.6458 -0.7541
v  -31.0006 169.2862 -31.9881
v  -73.3315 169.2862 41.3313
v  -46.2241 251.6458 26.3585
v  -48.2793 162.9536 62.2037
v  -37.3135 245.3131 33.6864
v  -14.2827 169.2862 62.8233
v  -24.3885 251.6458 34.3060
v  11.3304 169.2862 41.3313
v  -14.9171 251.6458 26.3585
v  16.5756 162.9535 7.7840
v  -12.7701 251.6458 14.1823
v  0.4186 169.2862 -20.5524
v  -18.9521 251.6458 3.4747
v  -31.5445 84.2699 -53.9287
v  -31.0202 174.5409 -18.3306
v  -7.8339 174.5409 -9.8914
v  14.3044 84.2700 -37.2410
v  4.5033 174.5409 11.4772
v  38.1393 77.9373 4.3940
v  0.2187 174.5409 35.7767
v  30.2276 84.2699 53.0638
v  -18.6829 174.5409 51.6371
v  -7.1488 84.2699 84.4264
v  -43.9183 168.2083 51.0175
v  -56.5012 77.9373 83.8067
v  -62.2590 174.5409 35.7767
v  -93.3167 84.2699 53.0638
v  -66.5437 174.5409 11.4772
v  -101.7892 84.2699 5.0136
v  -77.9544 77.9373 -37.8607
v  -54.7674 168.2083 -10.5111
v  -118.4979 7.8844 2.6102
v  -86.5923 89.4761 8.4928
v  -68.0255 83.1434 -25.2570
v  -89.0300 1.5518 -50.0209
v  -31.5162 89.4761 -37.7216
v  -32.0332 7.8844 -69.9422
v  -108.0690 7.8845 61.7555
v  -79.9493 89.4761 46.1671
v  -62.6230 1.5518 99.7401
v  -51.2048 83.1434 70.1377
v  -2.0044 7.8845 100.3598
v  -12.3884 89.4761 70.7573
v  44.0025 7.8845 61.7554
v  16.9170 89.4761 46.1672
v  53.8705 1.5518 1.9905
v  23.5600 89.4761 8.4928
v  24.4025 7.8845 -49.4014
v  4.4323 89.4761 -24.6374
v  -32.4119 -51.2941 -86.5375
v  -31.9582 13.6518 -55.0061
v  15.3659 13.6519 -37.7815
v  34.9185 -51.2940 -62.0313
v  40.5466 13.6518 5.8327
v  70.1834 -57.6267 -0.5989
v  31.8015 13.6519 55.4289
v  58.3021 -51.2940 70.5836
v  -6.7776 13.6519 87.8006
v  3.4139 -51.2940 116.6404
v  -57.6998 7.3192 87.1810
v  -68.7985 -57.6267 116.0208
v  -95.7179 13.6519 55.4290
v  -123.1259 -51.2940 70.5837
v  -104.4630 13.6518 5.8328
v  -135.5680 -51.2941 0.0208
v  -100.3032 -57.6267 -62.6509
v  -79.8433 7.3192 -38.4010
v  -33.9617 -131.4390 -13.2680
v  -33.9617 -72.0161 -24.1281
v  -8.9667 -72.0161 -15.0307
v  -15.9474 -131.4390 -6.7114
v  4.3329 -72.0161 8.0048
v  -6.3622 -131.4390 9.8906
v  -0.2860 -72.0161 34.1998
v  -9.6911 -131.4390 28.7698
v  -20.6621 -72.0161 51.2974
v  -24.3765 -131.4390 41.0923
v  -47.2612 -72.0161 51.2974
v  -43.5469 -131.4390 41.0922
v  -67.6373 -72.0161 34.1998
v  -58.2322 -131.4390 28.7698
v  -72.2562 -72.0161 8.0048
v  -61.5611 -131.4390 9.8906
v  -58.9567 -72.0161 -15.0307
v  -51.9759 -131.4390 -6.7114
v  -33.9617 -189.5606 -24.1281
v  -8.9667 -189.5606 -15.0307
v  4.3329 -189.5606 8.0048
v  -0.2860 -189.5606 34.1998
v  -20.6621 -189.5606 51.2974
v  -47.2612 -189.5606 51.2974
v  -67.6373 -189.5606 34.1998
v  -72.2562 -189.5606 8.0048
v  -58.9567 -189.5606 -15.0307
# 144 vertices

vn 0.3238 0.3221 -0.8896
vn 0.8730 0.3022 -0.3827
vn 0.9536 0.2971 0.0477
vn 0.6109 0.3112 0.7280
vn -0.1164 0.2965 0.9479
vn -0.5313 0.3015 0.7917
vn -0.9327 0.3210 0.1645
vn 0.0000 1.0000 -0.0000
vn -0.3809 0.3169 -0.8686
vn -0.7898 0.3166 -0.5253
vn 0.0415 -0.9991 0.0024
vn -0.7667 0.4310 -0.4757
vn -0.3356 0.4304 -0.8379
vn -0.8898 0.4285 0.1569
vn -0.5511 0.4230 0.7193
vn -0.0455 0.4187 0.9070
vn 0.5844 0.4163 0.6965
vn 0.9079 0.3960 0.1376
vn 0.8023 0.4025 -0.4408
vn 0.3093 0.4266 -0.8499
vn -0.7838 0.3370 -0.5217
vn -0.3783 0.3367 -0.8623
vn -0.9279 0.3351 0.1636
vn -0.5277 0.3288 0.7832
vn -0.1127 0.3256 0.9388
vn 0.6078 0.3254 0.7244
vn 0.9437 0.3122 0.1093
vn 0.8444 0.3173 -0.4317
vn 0.3224 0.3342 -0.8857
vn 0.3209 0.3458 -0.8817
vn 0.8325 0.3304 -0.4447
vn 0.9366 0.3260 0.1283
vn 0.6047 0.3390 0.7207
vn -0.0735 0.3409 0.9372
vn -0.5534 0.3441 0.7585
vn -0.9230 0.3487 0.1627
vn -0.3579 0.3490 -0.8661
vn -0.7906 0.3500 -0.5024
vn -0.7957 0.3507 -0.4939
vn -0.3486 0.3496 -0.8696
vn -0.9228 0.3491 0.1627
vn -0.5664 0.3446 0.7487
vn -0.0551 0.3408 0.9385
vn 0.6048 0.3385 0.7208
vn 0.9359 0.3243 0.1375
vn 0.8290 0.3293 -0.4520
vn 0.3209 0.3461 -0.8816
vn 0.3114 0.4133 -0.8557
vn 0.8077 0.3910 -0.4412
vn 0.9129 0.3849 0.1357
vn 0.5881 0.4035 0.7009
vn -0.0509 0.4056 0.9126
vn -0.5513 0.4096 0.7268
vn -0.8960 0.4150 0.1580
vn -0.3404 0.4168 -0.8429
vn -0.7708 0.4174 -0.4812
vn 0.1824 -0.8628 0.4715
vn 0.4346 -0.8567 0.2778
vn 0.4511 -0.8889 -0.0795
vn 0.0338 -0.8164 -0.5765
vn 0.3326 -0.8240 -0.4586
vn -0.3049 -0.8804 -0.3633
vn -0.6502 -0.7582 0.0485
vn -0.6189 -0.7661 0.1734
vn -0.1439 -0.9072 0.3954
vn -0.1295 -0.9255 0.3559
vn -0.5359 -0.8196 0.2028
vn -0.5873 -0.8093 -0.0082
vn -0.2691 -0.9081 -0.3207
vn 0.1984 -0.8870 -0.4170
vn 0.1156 -0.8858 -0.4495
vn 0.3987 -0.9144 -0.0703
vn 0.3033 -0.9077 0.2901
vn 0.2296 -0.9091 0.3477
vn 0.2137 -0.9379 0.2733
vn 0.2322 -0.9377 0.2586
vn 0.3356 -0.9401 -0.0592
vn 0.1208 -0.9255 -0.3590
vn 0.1379 -0.9257 -0.3523
vn -0.2263 -0.9360 -0.2697
vn -0.5129 -0.8581 -0.0235
vn -0.4618 -0.8659 0.1920
vn -0.1107 -0.9462 0.3041
vn -0.1302 -0.9247 0.3577
vn -0.5031 -0.8320 0.2339
vn -0.5695 -0.8205 -0.0494
vn -0.2660 -0.9104 -0.3170
vn 0.1072 -0.9038 -0.4144
vn 0.1839 -0.9047 -0.3844
vn 0.3927 -0.9170 -0.0693
vn 0.2232 -0.9201 0.3218
vn 0.2799 -0.9193 0.2765
vn 0.2434 -0.9398 0.2401
vn 0.1938 -0.9402 0.2801
vn 0.3381 -0.9392 -0.0596
vn 0.1572 -0.9309 -0.3297
vn 0.0922 -0.9303 -0.3550
vn -0.2282 -0.9348 -0.2720
vn -0.4989 -0.8656 -0.0432
vn -0.4422 -0.8730 0.2057
vn -0.1133 -0.9435 0.3114
vn -0.2817 -0.5673 0.7738
vn -0.6966 -0.6658 0.2673
vn -0.4648 -0.8844 -0.0418
vn -0.5116 -0.7239 -0.4627
vn 0.0523 -0.5359 -0.8427
vn 0.4635 -0.7303 -0.5019
vn 0.2956 -0.9539 -0.0521
vn 0.3663 -0.7441 0.5587
vn 0.2118 -0.9540 0.2122
vn 0.3371 -0.1693 -0.9261
vn 0.8535 -0.1693 -0.4928
vn 0.9706 -0.1693 0.1711
vn 0.6335 -0.1693 0.7550
vn 0.0000 -0.1693 0.9856
vn -0.6335 -0.1693 0.7550
vn -0.9706 -0.1693 0.1711
vn -0.3371 -0.1693 -0.9261
vn -0.8535 -0.1693 -0.4928
vn -0.0000 -1.0000 0.0000
vn -0.8530 0.1729 -0.4925
vn -0.3369 0.1729 -0.9255
vn -0.9700 0.1729 0.1710
vn -0.6331 0.1729 0.7545
vn 0.0000 0.1729 0.9849
vn 0.6331 0.1729 0.7545
vn 0.9700 0.1729 0.1710
vn 0.8530 0.1729 -0.4925
vn 0.3369 0.1729 -0.9255
# 129 vertex normals

o Cylinder
g Cylinder
usemtl 02___Default
s off
f 1//1 2//1 3//1 
f 3//1 4//1 1//1 
f 4//2 3//2 5//2 
f 5//2 6//2 4//2 
f 6//3 5//3 7//3 
f 7//3 8//3 6//3 
f 8//4 7//4 9//4 
f 9//4 10//4 8//4 
f 10//5 9//5 11//5 
f 11//5 12//5 10//5 
f 12//6 11//6 13//6 
f 13//6 14//6 12//6 
f 14//7 13//7 15//7 
f 15//7 16//7 14//7 
f 3//8 2//8 17//8 
f 3//8 17//8 15//8 
f 3//8 15//8 13//8 
f 3//8 13//8 11//8 
f 3//8 11//8 9//8 
f 3//8 9//8 7//8 
f 3//8 7//8 5//8 
f 18//9 17//9 2//9 
f 2//9 1//9 18//9 
f 16//10 15//10 17//10 
f 17//10 18//10 16//10 
f 19//11 20//11 21//11 
f 19//11 21//11 22//11 
f 19//11 22//11 23//11 
f 19//11 23//11 24//11 
f 19//11 24//11 25//11 
f 19//11 25//11 26//11 
f 19//11 26//11 27//11 
f 28//12 29//12 30//12 
f 30//12 31//12 28//12 
f 31//13 30//13 32//13 
f 32//13 33//13 31//13 
f 34//14 35//14 29//14 
f 29//14 28//14 34//14 
f 36//15 37//15 35//15 
f 35//15 34//15 36//15 
f 38//16 39//16 37//16 
f 37//16 36//16 38//16 
f 40//17 41//17 39//17 
f 39//17 38//17 40//17 
f 42//18 43//18 41//18 
f 41//18 40//18 42//18 
f 44//19 45//19 43//19 
f 43//19 42//19 44//19 
f 33//20 32//20 45//20 
f 45//20 44//20 33//20 
f 46//21 47//21 48//21 
f 48//21 49//21 46//21 
f 49//22 48//22 50//22 
f 50//22 51//22 49//22 
f 52//23 53//23 47//23 
f 47//23 46//23 52//23 
f 54//24 55//24 53//24 
f 53//24 52//24 54//24 
f 56//25 57//25 55//25 
f 55//25 54//25 56//25 
f 58//26 59//26 57//26 
f 57//26 56//26 58//26 
f 60//27 61//27 59//27 
f 59//27 58//27 60//27 
f 62//28 63//28 61//28 
f 61//28 60//28 62//28 
f 51//29 50//29 63//29 
f 63//29 62//29 51//29 
f 64//30 65//30 66//30 
f 66//30 67//30 64//30 
f 67//31 66//31 68//31 
f 68//31 69//31 67//31 
f 69//32 68//32 70//32 
f 70//32 71//32 69//32 
f 71//33 70//33 72//33 
f 72//33 73//33 71//33 
f 73//34 72//34 74//34 
f 74//34 75//34 73//34 
f 75//35 74//35 76//35 
f 76//35 77//35 75//35 
f 77//36 76//36 78//36 
f 78//36 79//36 77//36 
f 80//37 81//37 65//37 
f 65//37 64//37 80//37 
f 79//38 78//38 81//38 
f 81//38 80//38 79//38 
f 82//39 83//39 84//39 
f 84//39 85//39 82//39 
f 85//40 84//40 86//40 
f 86//40 87//40 85//40 
f 88//41 89//41 83//41 
f 83//41 82//41 88//41 
f 90//42 91//42 89//42 
f 89//42 88//42 90//42 
f 92//43 93//43 91//43 
f 91//43 90//43 92//43 
f 94//44 95//44 93//44 
f 93//44 92//44 94//44 
f 96//45 97//45 95//45 
f 95//45 94//45 96//45 
f 98//46 99//46 97//46 
f 97//46 96//46 98//46 
f 87//47 86//47 99//47 
f 99//47 98//47 87//47 
f 100//48 101//48 102//48 
f 102//48 103//48 100//48 
f 103//49 102//49 104//49 
f 104//49 105//49 103//49 
f 105//50 104//50 106//50 
f 106//50 107//50 105//50 
f 107//51 106//51 108//51 
f 108//51 109//51 107//51 
f 109//52 108//52 110//52 
f 110//52 111//52 109//52 
f 111//53 110//53 112//53 
f 112//53 113//53 111//53 
f 113//54 112//54 114//54 
f 114//54 115//54 113//54 
f 116//55 117//55 101//55 
f 101//55 100//55 116//55 
f 115//56 114//56 117//56 
f 117//56 116//56 115//56 
f 47//57 16//57 18//57 
f 18//57 48//57 47//57 
f 48//58 18//58 1//58 
f 1//58 50//58 48//58 
f 53//59 14//59 16//59 
f 16//59 47//59 53//59 
f 55//60 12//60 14//60 
f 14//60 53//60 55//60 
f 57//61 10//61 12//61 
f 12//61 55//61 57//61 
f 59//62 8//62 10//62 
f 10//62 57//62 59//62 
f 61//63 6//63 8//63 
f 8//63 59//63 61//63 
f 63//64 4//64 6//64 
f 6//64 61//64 63//64 
f 50//65 1//65 4//65 
f 4//65 63//65 50//65 
f 65//66 51//66 62//66 
f 62//66 66//66 65//66 
f 66//67 62//67 60//67 
f 60//67 68//67 66//67 
f 68//68 60//68 58//68 
f 58//68 70//68 68//68 
f 70//69 58//69 56//69 
f 56//69 72//69 70//69 
f 72//70 56//70 54//70 
f 54//70 74//70 72//70 
f 74//71 54//71 52//71 
f 52//71 76//71 74//71 
f 76//72 52//72 46//72 
f 46//72 78//72 76//72 
f 81//73 49//73 51//73 
f 51//73 65//73 81//73 
f 78//74 46//74 49//74 
f 49//74 81//74 78//74 
f 83//75 79//75 80//75 
f 80//75 84//75 83//75 
f 84//76 80//76 64//76 
f 64//76 86//76 84//76 
f 89//77 77//77 79//77 
f 79//77 83//77 89//77 
f 91//78 75//78 77//78 
f 77//78 89//78 91//78 
f 93//79 73//79 75//79 
f 75//79 91//79 93//79 
f 95//80 71//80 73//80 
f 73//80 93//80 95//80 
f 97//81 69//81 71//81 
f 71//81 95//81 97//81 
f 99//82 67//82 69//82 
f 69//82 97//82 99//82 
f 86//83 64//83 67//83 
f 67//83 99//83 86//83 
f 101//84 87//84 98//84 
f 98//84 102//84 101//84 
f 102//85 98//85 96//85 
f 96//85 104//85 102//85 
f 104//86 96//86 94//86 
f 94//86 106//86 104//86 
f 106//87 94//87 92//87 
f 92//87 108//87 106//87 
f 108//88 92//88 90//88 
f 90//88 110//88 108//88 
f 110//89 90//89 88//89 
f 88//89 112//89 110//89 
f 112//90 88//90 82//90 
f 82//90 114//90 112//90 
f 117//91 85//91 87//91 
f 87//91 101//91 117//91 
f 114//92 82//92 85//92 
f 85//92 117//92 114//92 
f 29//93 115//93 116//93 
f 116//93 30//93 29//93 
f 30//94 116//94 100//94 
f 100//94 32//94 30//94 
f 35//95 113//95 115//95 
f 115//95 29//95 35//95 
f 37//96 111//96 113//96 
f 113//96 35//96 37//96 
f 39//97 109//97 111//97 
f 111//97 37//97 39//97 
f 41//98 107//98 109//98 
f 109//98 39//98 41//98 
f 43//99 105//99 107//99 
f 107//99 41//99 43//99 
f 45//100 103//100 105//100 
f 105//100 43//100 45//100 
f 32//101 100//101 103//101 
f 103//101 45//101 32//101 
f 19//102 33//102 44//102 
f 44//102 20//102 19//102 
f 20//103 44//103 42//103 
f 42//103 21//103 20//103 
f 21//104 42//104 40//104 
f 40//104 22//104 21//104 
f 22//105 40//105 38//105 
f 38//105 23//105 22//105 
f 23//106 38//106 36//106 
f 36//106 24//106 23//106 
f 24//107 36//107 34//107 
f 34//107 25//107 24//107 
f 25//108 34//108 28//108 
f 28//108 26//108 25//108 
f 27//109 31//109 33//109 
f 33//109 19//109 27//109 
f 26//110 28//110 31//110 
f 31//110 27//110 26//110 
f 118//111 119//111 120//111 
f 120//111 121//111 118//111 
f 121//112 120//112 122//112 
f 122//112 123//112 121//112 
f 123//113 122//113 124//113 
f 124//113 125//113 123//113 
f 125//114 124//114 126//114 
f 126//114 127//114 125//114 
f 127//115 126//115 128//115 
f 128//115 129//115 127//115 
f 129//116 128//116 130//116 
f 130//116 131//116 129//116 
f 131//117 130//117 132//117 
f 132//117 133//117 131//117 
f 120//8 119//8 134//8 
f 120//8 134//8 132//8 
f 120//8 132//8 130//8 
f 120//8 130//8 128//8 
f 120//8 128//8 126//8 
f 120//8 126//8 124//8 
f 120//8 124//8 122//8 
f 135//118 134//118 119//118 
f 119//118 118//118 135//118 
f 133//119 132//119 134//119 
f 134//119 135//119 133//119 
f 136//120 137//120 138//120 
f 136//120 138//120 139//120 
f 136//120 139//120 140//120 
f 136//120 140//120 141//120 
f 136//120 141//120 142//120 
f 136//120 142//120 143//120 
f 136//120 143//120 144//120 
f 143//121 133//121 135//121 
f 135//121 144//121 143//121 
f 144//122 135//122 118//122 
f 118//122 136//122 144//122 
f 142//123 131//123 133//123 
f 133//123 143//123 142//123 
f 141//124 129//124 131//124 
f 131//124 142//124 141//124 
f 140//125 127//125 129//125 
f 129//125 141//125 140//125 
f 139//126 125//126 127//126 
f 127//126 140//126 139//126 
f 138//127 123//127 125//127 
f 125//127 139//127 138//127 
f 137//128 121//128 123//128 
f 123//128 138//128 137//128 
f 136//129 118//129 121//129 
f 121//129 137//129 136//129 
# 280 faces

