# Blender v2.79 (sub 0) OBJ File: ''
# www.blender.org
mtllib Enemy2.mtl
o Cube
v 0.699345 -0.699345 -0.699345
v 0.699345 -0.699345 0.699345
v -0.699345 -0.699345 0.699345
v -0.699345 -0.699345 -0.699345
v 0.699345 0.699345 -0.699345
v 0.699345 0.699345 0.699346
v -0.699345 0.699345 0.699345
v -0.699345 0.699345 -0.699345
v 1.000000 -1.000000 0.000000
v 1.000000 0.000000 -1.000000
v 1.000000 0.000000 1.000000
v -1.000000 -1.000000 -0.000000
v -1.000000 0.000000 1.000000
v -1.000000 0.000000 -1.000000
v 1.000000 1.000000 0.000001
v -1.000000 1.000000 -0.000000
v -3.127487 0.000000 -0.000000
v 3.127487 0.000000 0.000000
vn -0.0000 -0.9187 0.3950
vn -0.0000 0.9187 0.3950
vn 0.3772 0.6549 0.6549
vn -0.0000 0.3950 0.9187
vn -0.3772 0.6549 -0.6549
vn 0.0000 -0.3950 -0.9187
vn 0.0000 0.3950 -0.9187
vn -0.3772 -0.6549 -0.6549
vn -0.3772 -0.6549 0.6549
vn -0.3772 0.6549 0.6549
vn -0.0000 -0.3950 0.9187
vn 0.3772 -0.6549 0.6549
vn 0.3772 -0.6549 -0.6549
vn 0.3772 0.6549 -0.6549
vn 0.0000 0.9187 -0.3950
vn 0.0000 -0.9187 -0.3950
usemtl Material
s off
f 9//1 2//1 3//1 12//1
f 15//2 16//2 7//2 6//2
f 18//3 15//3 6//3 11//3
f 11//4 6//4 7//4 13//4
f 17//5 16//5 8//5 14//5
f 10//6 1//6 4//6 14//6
f 5//7 10//7 14//7 8//7
f 12//8 17//8 14//8 4//8
f 3//9 13//9 17//9 12//9
f 13//10 7//10 16//10 17//10
f 2//11 11//11 13//11 3//11
f 9//12 18//12 11//12 2//12
f 1//13 10//13 18//13 9//13
f 10//14 5//14 15//14 18//14
f 5//15 8//15 16//15 15//15
f 1//16 9//16 12//16 4//16
